<svg width="802" height="415" viewBox="0 0 802 415" fill="none" xmlns="http://www.w3.org/2000/svg">
<rect x="98.5" y="103.5" width="239" height="186" rx="40.5" fill="#D9D9D9" stroke="black"/>
<circle cx="262" cy="200" r="32" fill="black"/>
<g filter="url(#filter0_d_6_2)">
<rect x="120.84" y="228" width="16.7962" height="126.433" rx="8.39811" transform="rotate(38 120.84 228)" fill="#807777"/>
<rect x="120.926" y="228.702" width="15.7962" height="125.433" rx="7.89811" transform="rotate(38 120.926 228.702)" stroke="black"/>
</g>
<circle cx="164" cy="196" r="65.5" fill="#6C6A6A" stroke="black"/>
<circle cx="164" cy="196" r="52" fill="black"/>
<rect x="212.5" y="53.5" width="13" height="60" rx="6.5" fill="#D9D9D9" stroke="black"/>
<circle cx="219.5" cy="46.5" r="12" fill="#D9D9D9" stroke="black"/>
<rect x="198.5" y="290.5" width="42" height="27" fill="#D9D9D9" stroke="black"/>
<path d="M218.5 313.677C238.196 313.677 257.06 317.879 270.943 325.333C284.617 332.675 292.251 342.512 292.493 352.677H144.507C144.749 342.512 152.383 332.675 166.057 325.333C179.94 317.879 198.804 313.677 218.5 313.677Z" fill="#D9D9D9" stroke="black"/>
<g filter="url(#filter1_ddd_6_2)">
<path d="M370.626 168.936C365.374 168.936 360.902 167.87 357.21 165.738C353.57 163.606 350.814 160.59 348.942 156.69C347.07 152.79 346.134 148.188 346.134 142.884C346.134 137.216 347.122 132.354 349.098 128.298C351.074 124.19 353.934 121.044 357.678 118.86C361.422 116.676 365.946 115.584 371.25 115.584C373.746 115.584 375.8 115.818 377.412 116.286C379.024 116.754 380.324 117.248 381.312 117.768C382.352 118.236 383.21 118.47 383.886 118.47C384.458 118.47 384.874 118.366 385.134 118.158C385.446 117.898 385.654 117.638 385.758 117.378L386.07 116.52H388.098L388.878 130.56H386.85C386.538 129.26 386.044 127.908 385.368 126.504C384.744 125.048 383.86 123.696 382.716 122.448C381.572 121.2 380.09 120.186 378.27 119.406C376.502 118.626 374.318 118.236 371.718 118.236C368.91 118.236 366.518 118.756 364.542 119.796C362.566 120.836 360.928 122.24 359.628 124.008C358.328 125.724 357.288 127.648 356.508 129.78C355.78 131.86 355.26 133.992 354.948 136.176C354.636 138.308 354.48 140.31 354.48 142.182C354.48 145.146 354.792 148.058 355.416 150.918C356.04 153.778 357.028 156.378 358.38 158.718C359.784 161.006 361.578 162.852 363.762 164.256C365.998 165.608 368.676 166.284 371.796 166.284C374.344 166.284 376.476 165.946 378.192 165.27C379.96 164.594 381.416 163.71 382.56 162.618C383.704 161.526 384.64 160.356 385.368 159.108C386.096 157.808 386.72 156.586 387.24 155.442L389.268 156.456C388.8 157.652 388.15 158.978 387.318 160.434C386.486 161.838 385.368 163.19 383.964 164.49C382.56 165.79 380.766 166.856 378.582 167.688C376.45 168.52 373.798 168.936 370.626 168.936ZM391.73 168V165.738C393.446 165.738 394.668 165.634 395.396 165.426C396.124 165.218 396.566 164.828 396.722 164.256C396.93 163.632 397.034 162.722 397.034 161.526V138.282C397.034 136.93 396.878 136.046 396.566 135.63C396.254 135.162 395.656 134.928 394.772 134.928H392.12V132.588L401.324 131.028H403.43V138.36H403.664V161.526C403.664 162.774 403.768 163.71 403.976 164.334C404.236 164.906 404.782 165.296 405.614 165.504C406.446 165.66 407.772 165.738 409.592 165.738V168H391.73ZM403.352 146.004V138.828C403.716 138.152 404.158 137.346 404.678 136.41C405.198 135.474 405.848 134.564 406.628 133.68C407.408 132.796 408.344 132.068 409.436 131.496C410.528 130.872 411.776 130.56 413.18 130.56C415.052 130.56 416.482 131.106 417.47 132.198C418.51 133.29 419.03 134.798 419.03 136.722C419.03 138.178 418.666 139.374 417.938 140.31C417.262 141.246 416.144 141.714 414.584 141.714C413.232 141.714 412.218 141.35 411.542 140.622C410.866 139.894 410.528 139.036 410.528 138.048C410.528 137.268 410.684 136.644 410.996 136.176C411.308 135.708 411.62 135.318 411.932 135.006C412.244 134.694 412.4 134.382 412.4 134.07C412.4 133.862 412.322 133.706 412.166 133.602C412.01 133.446 411.75 133.368 411.386 133.368C410.606 133.368 409.774 133.706 408.89 134.382C408.006 135.006 407.148 135.916 406.316 137.112C405.536 138.256 404.886 139.582 404.366 141.09C403.898 142.598 403.664 144.21 403.664 145.926L403.352 146.004ZM449.959 168.78C449.023 168.78 448.165 168.65 447.385 168.39C446.657 168.13 446.059 167.558 445.591 166.674C445.175 165.79 444.967 164.412 444.967 162.54V141.324C444.967 138.828 444.447 136.904 443.407 135.552C442.367 134.148 440.521 133.446 437.869 133.446C436.569 133.446 435.373 133.628 434.281 133.992C433.241 134.304 432.383 134.694 431.707 135.162C431.083 135.63 430.771 136.072 430.771 136.488C430.771 136.904 430.953 137.242 431.317 137.502C431.733 137.762 432.123 138.1 432.487 138.516C432.903 138.932 433.111 139.608 433.111 140.544C433.111 141.636 432.799 142.52 432.175 143.196C431.551 143.82 430.667 144.132 429.523 144.132C428.327 144.132 427.365 143.768 426.637 143.04C425.961 142.312 425.623 141.298 425.623 139.998C425.623 138.438 426.117 136.956 427.105 135.552C428.145 134.148 429.731 133.004 431.863 132.12C433.995 131.184 436.699 130.716 439.975 130.716C443.719 130.716 446.579 131.496 448.555 133.056C450.531 134.564 451.519 137.398 451.519 141.558V160.044C451.519 162.124 451.727 163.528 452.143 164.256C452.611 164.984 453.339 165.348 454.327 165.348C454.795 165.348 455.185 165.296 455.497 165.192C455.809 165.088 456.147 164.958 456.511 164.802L457.057 166.752C456.485 167.116 455.627 167.532 454.483 168C453.391 168.52 451.883 168.78 449.959 168.78ZM433.267 168.858C430.563 168.858 428.275 168.234 426.403 166.986C424.531 165.686 423.595 163.71 423.595 161.058C423.595 158.562 424.479 156.274 426.247 154.194C428.015 152.062 430.615 150.268 434.047 148.812C437.531 147.304 441.795 146.238 446.839 145.614V147.954C441.379 148.942 437.297 150.346 434.593 152.166C431.941 153.986 430.615 156.326 430.615 159.186C430.615 161.006 431.135 162.384 432.175 163.32C433.267 164.204 434.775 164.646 436.699 164.646C438.103 164.646 439.403 164.386 440.599 163.866C441.795 163.346 442.887 162.722 443.875 161.994C444.915 161.214 445.877 160.46 446.761 159.732V162.228C445.409 163.476 444.031 164.594 442.627 165.582C441.275 166.57 439.845 167.376 438.337 168C436.829 168.572 435.139 168.858 433.267 168.858ZM472.13 168L462.614 136.878C462.198 135.526 461.652 134.668 460.976 134.304C460.352 133.94 459.286 133.758 457.778 133.758V131.496H473.066V133.758H470.648C469.972 133.758 469.504 133.966 469.244 134.382C469.036 134.798 469.062 135.448 469.322 136.332L476.03 160.668H476.186L484.376 132.12H488.51L497.402 160.668H497.558L503.876 136.488C504.136 135.552 504.136 134.876 503.876 134.46C503.668 133.992 503.07 133.758 502.082 133.758H498.884V131.496H512.378V133.758C511.078 133.758 510.064 133.862 509.336 134.07C508.66 134.278 508.14 134.668 507.776 135.24C507.412 135.812 507.074 136.618 506.762 137.658L497.792 168H493.502L484.844 141.48H484.61L476.42 168H472.13ZM515.346 168V165.738C517.062 165.738 518.284 165.634 519.012 165.426C519.792 165.218 520.26 164.828 520.416 164.256C520.624 163.632 520.728 162.722 520.728 161.526V121.278C520.728 119.926 520.572 119.042 520.26 118.626C519.948 118.158 519.324 117.924 518.388 117.924H515.736V115.584L525.174 114.024H527.358V161.526C527.358 162.722 527.462 163.632 527.67 164.256C527.878 164.828 528.346 165.218 529.074 165.426C529.854 165.634 531.05 165.738 532.662 165.738V168H515.346ZM538.843 168V165.738C540.767 165.738 542.145 165.634 542.977 165.426C543.809 165.218 544.329 164.776 544.537 164.1C544.745 163.424 544.849 162.41 544.849 161.058V123.462C544.849 122.11 544.745 121.122 544.537 120.498C544.329 119.822 543.809 119.38 542.977 119.172C542.145 118.912 540.767 118.782 538.843 118.782V116.52H558.421C562.165 116.52 565.441 116.936 568.249 117.768C571.057 118.548 573.241 119.796 574.801 121.512C576.413 123.228 577.219 125.516 577.219 128.376C577.219 131.288 576.335 133.758 574.567 135.786C572.799 137.814 570.303 139.192 567.079 139.92V139.998C569.523 140.414 571.681 141.22 573.553 142.416C575.425 143.612 576.881 145.198 577.921 147.174C579.013 149.098 579.559 151.412 579.559 154.116C579.559 157.34 578.779 159.992 577.219 162.072C575.659 164.1 573.397 165.608 570.433 166.596C567.469 167.532 563.881 168 559.669 168H538.843ZM558.499 165.426C561.047 165.426 563.309 165.062 565.285 164.334C567.261 163.606 568.795 162.41 569.887 160.746C571.031 159.03 571.603 156.794 571.603 154.038C571.603 150.19 570.459 147.174 568.171 144.99C565.883 142.806 562.503 141.714 558.031 141.714H552.025V159.732C552.025 161.916 552.467 163.424 553.351 164.256C554.235 165.036 555.951 165.426 558.499 165.426ZM552.025 138.984H557.797C561.801 138.984 564.791 138.178 566.767 136.566C568.743 134.954 569.731 132.484 569.731 129.156C569.731 126.608 569.159 124.606 568.015 123.15C566.923 121.694 565.415 120.68 563.491 120.108C561.619 119.484 559.487 119.172 557.095 119.172C555.535 119.172 554.391 119.276 553.663 119.484C552.987 119.692 552.545 120.056 552.337 120.576C552.129 121.096 552.025 121.824 552.025 122.76V138.984ZM603.908 168.858C598.136 168.858 593.846 167.246 591.038 164.022C588.282 160.746 586.904 155.988 586.904 149.748C586.904 143.56 588.282 138.828 591.038 135.552C593.846 132.224 598.136 130.56 603.908 130.56C609.68 130.56 613.944 132.198 616.7 135.474C619.508 138.75 620.912 143.482 620.912 149.67C620.912 155.962 619.508 160.746 616.7 164.022C613.944 167.246 609.68 168.858 603.908 168.858ZM603.908 166.362C607.288 166.362 609.732 164.932 611.24 162.072C612.8 159.16 613.58 155.026 613.58 149.67C613.58 144.262 612.774 140.154 611.162 137.346C609.602 134.486 607.158 133.056 603.83 133.056C600.502 133.056 598.058 134.486 596.498 137.346C594.938 140.206 594.158 144.34 594.158 149.748C594.158 155.104 594.938 159.212 596.498 162.072C598.11 164.932 600.58 166.362 603.908 166.362ZM645.346 168.858C639.574 168.858 635.284 167.246 632.476 164.022C629.72 160.746 628.342 155.988 628.342 149.748C628.342 143.56 629.72 138.828 632.476 135.552C635.284 132.224 639.574 130.56 645.346 130.56C651.118 130.56 655.382 132.198 658.138 135.474C660.946 138.75 662.35 143.482 662.35 149.67C662.35 155.962 660.946 160.746 658.138 164.022C655.382 167.246 651.118 168.858 645.346 168.858ZM645.346 166.362C648.726 166.362 651.17 164.932 652.678 162.072C654.238 159.16 655.018 155.026 655.018 149.67C655.018 144.262 654.212 140.154 652.6 137.346C651.04 134.486 648.596 133.056 645.268 133.056C641.94 133.056 639.496 134.486 637.936 137.346C636.376 140.206 635.596 144.34 635.596 149.748C635.596 155.104 636.376 159.212 637.936 162.072C639.548 164.932 642.018 166.362 645.346 166.362ZM683.351 168.858C681.635 168.806 680.231 168.598 679.139 168.234C678.099 167.922 677.215 167.61 676.487 167.298C675.759 166.934 675.005 166.752 674.225 166.752C673.653 166.752 673.237 166.882 672.977 167.142C672.717 167.402 672.457 167.766 672.197 168.234H670.715L669.935 155.364H671.495C672.535 159.108 674.069 161.89 676.097 163.71C678.177 165.478 680.569 166.362 683.273 166.362C685.509 166.362 687.329 165.816 688.733 164.724C690.137 163.632 690.839 162.046 690.839 159.966C690.839 158.354 690.423 157.08 689.591 156.144C688.759 155.208 687.667 154.428 686.315 153.804C684.963 153.128 683.533 152.504 682.025 151.932L680.075 151.23C677.163 150.034 674.901 148.734 673.289 147.33C671.677 145.926 670.871 143.898 670.871 141.246C670.871 137.918 672.041 135.318 674.381 133.446C676.721 131.574 679.789 130.638 683.585 130.638C685.093 130.638 686.289 130.768 687.173 131.028C688.109 131.236 688.863 131.47 689.435 131.73C690.059 131.938 690.657 132.042 691.229 132.042C691.957 132.042 692.399 131.86 692.555 131.496C692.711 131.132 692.815 130.846 692.867 130.638H694.271L694.817 142.104H693.257C692.893 140.388 692.321 138.854 691.541 137.502C690.813 136.15 689.825 135.084 688.577 134.304C687.329 133.472 685.769 133.056 683.897 133.056C681.817 133.056 680.075 133.576 678.671 134.616C677.267 135.656 676.565 137.008 676.565 138.672C676.565 139.868 676.903 140.934 677.579 141.87C678.307 142.754 679.191 143.508 680.231 144.132C681.323 144.704 682.363 145.172 683.351 145.536L685.457 146.238C687.849 147.07 689.877 147.98 691.541 148.968C693.257 149.904 694.557 151.074 695.441 152.478C696.377 153.83 696.845 155.52 696.845 157.548C696.845 159.836 696.273 161.838 695.129 163.554C693.985 165.27 692.399 166.596 690.371 167.532C688.343 168.468 686.003 168.91 683.351 168.858ZM714.739 168.858C713.543 168.858 712.347 168.624 711.151 168.156C709.955 167.74 708.967 166.934 708.187 165.738C707.459 164.542 707.095 162.852 707.095 160.668V133.992H701.401V131.652C703.325 131.444 704.963 130.82 706.315 129.78C707.667 128.688 708.759 127.284 709.591 125.568C710.423 123.8 711.021 121.824 711.385 119.64H713.647V131.496H722.305V133.992H713.647V159.498C713.647 161.734 713.985 163.294 714.661 164.178C715.389 165.01 716.377 165.426 717.625 165.426C718.509 165.426 719.393 165.218 720.277 164.802C721.161 164.334 721.863 163.918 722.383 163.554L723.241 165.426C722.617 165.894 721.889 166.414 721.057 166.986C720.277 167.506 719.367 167.948 718.327 168.312C717.339 168.676 716.143 168.858 714.739 168.858Z" fill="black"/>
<path d="M342 177.75H724.099V181.65H342V177.75Z" fill="black"/>
</g>
<defs>
<filter id="filter0_d_6_2" x="42.3897" y="231.39" width="92.296" height="111.192" filterUnits="userSpaceOnUse" color-interpolation-filters="sRGB">
<feFlood flood-opacity="0" result="BackgroundImageFix"/>
<feColorMatrix in="SourceAlpha" type="matrix" values="0 0 0 0 0 0 0 0 0 0 0 0 0 0 0 0 0 0 127 0" result="hardAlpha"/>
<feOffset dy="4"/>
<feGaussianBlur stdDeviation="2"/>
<feComposite in2="hardAlpha" operator="out"/>
<feColorMatrix type="matrix" values="0 0 0 0 0 0 0 0 0 0 0 0 0 0 0 0 0 0 0.25 0"/>
<feBlend mode="normal" in2="BackgroundImageFix" result="effect1_dropShadow_6_2"/>
<feBlend mode="normal" in="SourceGraphic" in2="effect1_dropShadow_6_2" result="shape"/>
</filter>
<filter id="filter1_ddd_6_2" x="338" y="114.024" width="390.099" height="75.626" filterUnits="userSpaceOnUse" color-interpolation-filters="sRGB">
<feFlood flood-opacity="0" result="BackgroundImageFix"/>
<feColorMatrix in="SourceAlpha" type="matrix" values="0 0 0 0 0 0 0 0 0 0 0 0 0 0 0 0 0 0 127 0" result="hardAlpha"/>
<feOffset dy="4"/>
<feGaussianBlur stdDeviation="2"/>
<feComposite in2="hardAlpha" operator="out"/>
<feColorMatrix type="matrix" values="0 0 0 0 0 0 0 0 0 0 0 0 0 0 0 0 0 0 0.25 0"/>
<feBlend mode="normal" in2="BackgroundImageFix" result="effect1_dropShadow_6_2"/>
<feColorMatrix in="SourceAlpha" type="matrix" values="0 0 0 0 0 0 0 0 0 0 0 0 0 0 0 0 0 0 127 0" result="hardAlpha"/>
<feOffset dy="4"/>
<feGaussianBlur stdDeviation="2"/>
<feComposite in2="hardAlpha" operator="out"/>
<feColorMatrix type="matrix" values="0 0 0 0 0 0 0 0 0 0 0 0 0 0 0 0 0 0 0.25 0"/>
<feBlend mode="normal" in2="effect1_dropShadow_6_2" result="effect2_dropShadow_6_2"/>
<feColorMatrix in="SourceAlpha" type="matrix" values="0 0 0 0 0 0 0 0 0 0 0 0 0 0 0 0 0 0 127 0" result="hardAlpha"/>
<feOffset dy="4"/>
<feGaussianBlur stdDeviation="2"/>
<feComposite in2="hardAlpha" operator="out"/>
<feColorMatrix type="matrix" values="0 0 0 0 0 0 0 0 0 0 0 0 0 0 0 0 0 0 0.25 0"/>
<feBlend mode="normal" in2="effect2_dropShadow_6_2" result="effect3_dropShadow_6_2"/>
<feBlend mode="normal" in="SourceGraphic" in2="effect3_dropShadow_6_2" result="shape"/>
</filter>
</defs>
</svg>
